<svg width="122" height="30" viewBox="0 0 122 30" fill="none" xmlns="http://www.w3.org/2000/svg">
<path d="M116.367 6.49086C116.221 6.32443 116.013 6.24121 115.763 6.24121H105.736C105.507 6.24121 105.32 6.32443 105.153 6.49086C105.008 6.65729 104.945 6.86533 104.945 7.07338V23.2174C104.945 23.4254 105.008 23.6335 105.153 23.7999C105.299 23.9455 105.507 24.0287 105.715 24.0287H106.88C107.088 24.0287 107.296 23.9663 107.463 23.8207C107.629 23.6543 107.712 23.467 107.712 23.2382V16.7473H113.184C113.392 16.7473 113.6 16.6849 113.766 16.5393C113.933 16.3728 114.016 16.1648 114.016 15.9567V15.0206C114.016 14.7917 113.933 14.6045 113.766 14.4588C113.621 14.2924 113.413 14.2092 113.184 14.2092H107.712V8.80012H115.743C115.972 8.80012 116.18 8.73771 116.346 8.57127C116.512 8.40484 116.596 8.2176 116.596 7.98876V7.07338C116.616 6.84453 116.533 6.63649 116.367 6.49086Z" fill="#0572F1"/>
<path d="M102.074 22.9261L98.4123 16.5809C99.4317 16.248 100.264 15.6863 100.867 14.8957C101.533 14.0428 101.866 12.9609 101.866 11.6503C101.866 9.92354 101.304 8.55047 100.181 7.63509C99.078 6.6989 97.5385 6.24121 95.6245 6.24121H89.5913C89.3625 6.24121 89.1753 6.32443 89.0088 6.49086C88.8632 6.65729 88.8008 6.86533 88.8008 7.07338V23.2174C88.8008 23.4254 88.8632 23.6335 89.0088 23.7999C89.1545 23.9455 89.3625 24.0287 89.5705 24.0287H90.7564C90.9644 24.0287 91.1725 23.9663 91.3389 23.8207C91.5053 23.6543 91.5885 23.467 91.5885 23.2382V17.0386V16.7889V14.7709V14.5213V8.73771H95.4997C96.7064 8.73771 97.5801 8.98736 98.1418 9.46585C98.7035 9.92354 98.9948 10.6309 98.9948 11.6295C98.9948 12.6281 98.7035 13.3354 98.1418 13.7931C97.6009 14.2508 96.7688 14.5005 95.5829 14.5213V14.7709V16.7889V17.0386H95.6037L99.1612 23.2382C99.2861 23.467 99.4317 23.6543 99.5773 23.7999C99.7854 23.9663 100.035 24.0287 100.326 24.0287H101.408C101.616 24.0287 101.783 23.9455 101.928 23.7999C102.074 23.6543 102.157 23.4878 102.157 23.2798C102.157 23.1758 102.136 23.051 102.074 22.9261Z" fill="#0572F1"/>
<path d="M86.5349 22.9677L80.3977 6.94855C80.3145 6.71971 80.1896 6.55327 80.0024 6.42845C79.8152 6.30362 79.6071 6.24121 79.3783 6.24121H77.7972C77.5683 6.24121 77.3395 6.30362 77.173 6.42845C76.9858 6.55327 76.861 6.74051 76.7778 6.94855L70.6405 22.9677L70.5781 23.2798V23.3006C70.5781 23.5086 70.6613 23.6751 70.7862 23.8207C70.911 23.9663 71.0982 24.0496 71.3063 24.0496H72.4921C72.6793 24.0496 72.8458 24.0079 72.9914 23.9039C73.137 23.7999 73.2411 23.6543 73.3243 23.4878L74.4061 20.6377L74.6973 19.8263L75.4463 17.7667L75.5295 17.5171L75.5503 17.4338L78.5877 9.56987L81.6043 17.4546L81.6459 17.5379L81.7291 17.7875L82.4365 19.8471L82.5405 20.1592L83.8304 23.4878C83.872 23.6335 83.976 23.7583 84.08 23.8623L84.1008 23.8831L84.1216 23.9039C84.2881 24.0287 84.4753 24.0704 84.6833 24.0704H85.8484C86.0564 24.0704 86.2228 23.9871 86.3685 23.8623C86.5349 23.7167 86.6181 23.5503 86.6181 23.3422V23.3214L86.5349 22.9677Z" fill="#0572F1"/>
<path d="M66.9784 12.3157C67.124 12.4405 67.332 12.5029 67.5193 12.5029H68.7467C68.9339 12.5029 69.1212 12.4405 69.2668 12.3157C69.4332 12.17 69.5165 11.9828 69.5165 11.754V11.7332C69.454 10.7346 69.1628 9.79837 68.6219 8.92459C68.081 8.03002 67.2904 7.34348 66.2294 6.80257C65.1684 6.26167 63.8785 5.99121 62.3806 5.99121C60.1338 5.99121 58.407 6.61533 57.1796 7.86358C55.9938 9.11183 55.3696 10.797 55.2864 12.919C55.2656 13.3767 55.2656 14.1256 55.2656 15.145C55.2656 15.6443 55.2656 16.0812 55.2656 16.4557C55.2656 16.8302 55.2656 17.1214 55.2864 17.3503C55.3696 19.4723 55.9938 21.1782 57.1796 22.4265C58.3862 23.6747 60.1338 24.278 62.3806 24.278C63.8785 24.278 65.1684 24.0076 66.2294 23.4875C67.2904 22.9466 68.081 22.2392 68.6219 21.3447C69.1628 20.4709 69.4748 19.5347 69.5165 18.5361V18.5153C69.5165 18.3073 69.4332 18.12 69.2668 17.9952C69.1212 17.8496 68.9339 17.7872 68.7467 17.7872H67.5193C67.3112 17.7872 67.124 17.8496 66.9784 17.9744C66.8119 18.0992 66.7287 18.3073 66.6663 18.5153C66.3958 19.7427 65.8965 20.5541 65.2308 21.0118C64.5443 21.4903 63.6081 21.7399 62.4014 21.7399C61.0076 21.7399 59.9882 21.3655 59.3016 20.6165C58.6151 19.8884 58.2198 18.7441 58.1574 17.2046C58.1366 16.7261 58.1366 16.0396 58.1366 15.1034C58.1366 14.6457 58.1366 14.2505 58.1366 13.8968C58.1366 13.5639 58.1366 13.2727 58.1574 13.0646C58.2198 11.5043 58.5943 10.3601 59.3016 9.63193C59.9882 8.90379 61.0076 8.50851 62.4014 8.50851C63.6289 8.50851 64.5651 8.75816 65.2308 9.23666C65.8965 9.69435 66.3958 10.5265 66.6663 11.754C66.7287 11.9828 66.8327 12.1908 66.9784 12.3157Z" fill="#0572F1"/>
<path d="M52.582 16.7473C52.1659 16.1024 51.521 15.6031 50.6888 15.187C49.8774 14.7709 48.7748 14.3757 47.3601 13.9804C46.1535 13.6267 45.2173 13.2938 44.5932 13.0234C43.9899 12.7529 43.553 12.4409 43.2617 12.1288C43.0121 11.8168 42.8665 11.4007 42.8665 10.8806C42.8665 10.09 43.1577 9.5283 43.7402 9.15382C44.3435 8.73774 45.1757 8.5297 46.2783 8.5297C47.2769 8.5297 48.0883 8.75854 48.7332 9.17463C49.3781 9.61151 49.7318 10.1316 49.815 10.7557V10.7765V10.7973C49.8774 11.0054 49.9815 11.1718 50.1479 11.2966C50.2935 11.4007 50.4808 11.4631 50.668 11.4631H51.8954C52.1035 11.4631 52.2907 11.4007 52.4364 11.255C52.582 11.1094 52.6444 10.9222 52.6444 10.7141C52.6028 9.96518 52.3323 9.23704 51.833 8.5297C51.3337 7.80155 50.5848 7.19823 49.6486 6.74054C48.7124 6.26205 47.5682 6.0332 46.2575 6.0332C44.9885 6.0332 43.8859 6.24124 42.9497 6.67813C42.0135 7.09421 41.2853 7.67673 40.7652 8.42568C40.2659 9.15382 40.0163 10.0068 40.0163 10.943C40.0163 11.9 40.2035 12.7113 40.6196 13.3771C40.8276 13.6891 41.0773 13.9804 41.3686 14.2508C41.6598 14.5213 42.0135 14.7501 42.388 14.9582C43.1785 15.3743 44.1979 15.7695 45.467 16.144C46.7984 16.5393 47.7762 16.8722 48.442 17.1426C49.1077 17.3923 49.5654 17.7043 49.8566 18.0164C50.1479 18.3284 50.3143 18.7237 50.3143 19.2438C50.3143 20.0344 50.0023 20.6585 49.3781 21.0954C48.754 21.5531 47.7554 21.7819 46.3824 21.7819C45.1133 21.7819 44.1563 21.5323 43.5114 21.0954C42.8456 20.6169 42.4712 20.0552 42.3463 19.4311V19.4103V19.3895C42.2839 19.2022 42.1799 19.0358 42.0343 18.911C41.8887 18.7861 41.7014 18.7237 41.5142 18.7237H40.3075C40.0995 18.7237 39.9123 18.8069 39.7666 18.9526C39.621 19.0982 39.5586 19.2646 39.5586 19.4727C39.6002 20.3256 39.8915 21.137 40.4116 21.886C40.9733 22.6141 41.7638 23.1966 42.7832 23.6335C43.8234 24.0704 45.0301 24.2992 46.4032 24.2992C47.4226 24.2992 48.3379 24.1952 49.1701 23.9664C49.9815 23.7375 50.7096 23.4047 51.3129 22.9678C52.5612 22.0524 53.1853 20.7625 53.1853 19.1398C53.2061 18.162 52.9981 17.3715 52.582 16.7473Z" fill="#0572F1"/>
<path d="M25.5371 20.3881L13.8868 8.73774H22.6245C22.6661 8.73774 22.7077 8.73774 22.7493 8.71693C22.8117 8.73774 22.8741 8.73774 22.9366 8.73774H25.4331C25.7867 8.73774 26.0572 8.46728 26.0572 8.11361C26.0572 7.75994 25.7867 7.48949 25.4331 7.48949H22.9366V4.99299H25.4331C25.7867 4.99299 26.0572 4.72254 26.0572 4.36887C26.0572 4.0152 25.7867 3.74474 25.4331 3.74474H22.9366V1.24825H25.4747C25.8075 1.24825 26.0988 0.977794 26.0988 0.624124C26.0988 0.270454 25.8075 1.98199e-09 25.4747 1.98199e-09H22.9782C22.8949 1.98199e-09 22.8325 0.0208041 22.7701 0.0416083C22.7285 0.0208041 22.6661 1.98199e-09 22.6245 1.98199e-09H6.81335C5.50273 0 3.94238 1.53951 3.85917 1.64353L2.5069 2.9958L1.15463 4.34806C-0.384876 5.88757 -0.384876 8.40487 1.15463 9.94438L12.0144 20.8041H3.29745C3.27665 20.8041 3.27665 20.8041 3.25585 20.8041C3.23504 20.8041 3.21424 20.8041 3.19343 20.8041H0.696939C0.343268 20.8041 0.0728144 21.0746 0.0728144 21.4283C0.0728144 21.7819 0.343268 22.0524 0.696939 22.0524H2.98539V24.5489H0.696939C0.343268 24.5489 0.0728144 24.8193 0.0728144 25.173C0.0728144 25.5267 0.343268 25.7971 0.696939 25.7971H2.98539V28.2936H0.696939C0.343268 28.2936 0.0728144 28.5641 0.0728144 28.9177C0.0728144 29.2714 0.343268 29.5419 0.696939 29.5419H3.19343C3.21424 29.5419 3.23504 29.5419 3.25585 29.5419C3.27665 29.5419 3.27665 29.5419 3.29745 29.5419H21.2306C21.6259 29.5419 22.146 29.3338 22.4581 29.0218L25.5371 25.9844C27.0974 24.4449 27.0974 21.9276 25.5371 20.3881ZM6.79255 1.64353C6.64692 1.4979 6.50129 1.39388 6.35566 1.31066C6.50129 1.26905 6.64692 1.24825 6.81335 1.24825H21.6883V7.48949H12.6385L6.79255 1.64353ZM4.21284 28.2936V22.0524H13.2626L19.5039 28.2936H4.21284Z" fill="#0572F1"/>
<path d="M119.334 1.32031C118.097 1.32031 117.09 2.32724 117.09 3.5649C117.09 4.80257 118.097 5.8095 119.334 5.8095C120.572 5.8095 121.579 4.80257 121.579 3.5649C121.579 2.32724 120.572 1.32031 119.334 1.32031ZM119.334 5.36058C118.344 5.36058 117.539 4.55499 117.539 3.5649C117.539 2.57482 118.344 1.76923 119.334 1.76923C120.325 1.76923 121.13 2.57482 121.13 3.5649C121.13 4.55499 120.325 5.36058 119.334 5.36058Z" fill="#0572F1"/>
<path d="M120.233 3.11576C120.233 2.7445 119.931 2.44238 119.56 2.44238H118.438V4.68697H118.886V3.78914H119.215L119.814 4.68697H120.353L119.737 3.76243C119.879 3.72384 120.005 3.63966 120.094 3.52284C120.184 3.40601 120.233 3.263 120.233 3.11576ZM118.886 2.8913H119.56C119.619 2.8913 119.676 2.91495 119.719 2.95704C119.761 2.99914 119.784 3.05623 119.784 3.11576C119.784 3.17529 119.761 3.23238 119.719 3.27448C119.676 3.31657 119.619 3.34022 119.56 3.34022H118.886V2.8913Z" fill="#0572F1"/>
</svg>
